<svg width="227" height="227" viewBox="0 0 227 227" fill="none" xmlns="http://www.w3.org/2000/svg">
<path d="M66.7213 54.7947C66.0154 53.8178 64.6508 53.5978 63.6742 54.3045C58.8356 57.8025 54.3602 61.8112 50.3725 66.2194C49.5701 67.075 49.5889 68.4169 50.4244 69.2525C50.85 69.6781 51.4084 69.8907 51.9667 69.8907C52.5263 69.8907 53.0864 69.6772 53.5134 69.2503C53.5391 69.2241 53.5644 69.1975 53.5889 69.1704C57.378 64.9787 61.6312 61.1673 66.2315 57.8418C67.2084 57.1359 67.4276 55.7717 66.7213 54.7947Z" fill="#535DA3"/>
<path d="M176.54 69.2966C177.412 68.4663 177.447 67.0877 176.619 66.2142C172.631 61.8016 168.16 57.7947 163.331 54.3045C162.354 53.5978 160.99 53.8182 160.284 54.7952C159.578 55.7722 159.797 57.1368 160.774 57.8427C165.367 61.1617 169.617 64.9726 173.407 69.1704C173.432 69.1979 173.458 69.225 173.484 69.252C173.91 69.6825 174.473 69.899 175.036 69.899C175.576 69.8986 176.117 69.6991 176.54 69.2966Z" fill="#535DA3"/>
<path d="M192.361 105.87C192.546 106.887 193.437 107.657 194.508 107.657C195.714 107.657 196.691 106.677 196.691 105.472C196.691 105.315 196.674 105.159 196.64 105.005C195.527 99.9223 193.94 94.9288 191.921 90.1626C191.591 89.3756 190.814 88.8225 189.907 88.8225C188.702 88.8225 187.725 89.7999 187.725 91.0052C187.725 91.3164 187.791 91.622 187.917 91.9014C189.814 96.3877 191.309 101.086 192.361 105.87Z" fill="#535DA3"/>
<path d="M196.416 126.172C195.21 126.104 194.179 127.017 194.106 128.22C193.825 132.908 193.139 137.57 192.066 142.077C191.787 143.25 192.512 144.426 193.684 144.705C193.855 144.746 194.024 144.765 194.192 144.765C195.179 144.765 196.074 144.09 196.313 143.087C197.443 138.335 198.167 133.421 198.464 128.481C198.536 127.278 197.619 126.244 196.416 126.172Z" fill="#535DA3"/>
<path d="M186.018 161.41C185.438 161.41 184.912 161.636 184.52 162.004C184.358 162.157 184.217 162.336 184.105 162.537C181.625 167.002 178.7 171.251 175.414 175.166C174.668 176.006 174.679 177.29 175.468 178.118C175.897 178.568 176.472 178.794 177.049 178.794C177.59 178.794 178.133 178.594 178.556 178.191C178.615 178.136 178.67 178.077 178.722 178.015C182.184 173.896 185.266 169.426 187.881 164.729C188.084 164.397 188.2 164.009 188.2 163.593C188.2 162.387 187.223 161.41 186.018 161.41Z" fill="#535DA3"/>
<path d="M157.139 191.289C144.13 199.658 129.041 204.082 113.5 204.082C97.9598 204.082 82.8699 199.658 69.8615 191.289C68.8483 190.638 67.4977 190.93 66.845 191.944C66.1929 192.957 66.4862 194.308 67.4999 194.96C81.2137 203.783 97.1207 208.447 113.5 208.447C129.879 208.447 145.786 203.783 159.5 194.96C160.514 194.308 160.807 192.957 160.155 191.944C159.503 190.93 158.152 190.636 157.139 191.289Z" fill="#535DA3"/>
<path d="M42.8897 162.535C42.7862 162.35 42.6579 162.183 42.5103 162.038C42.1166 161.649 41.5753 161.41 40.9781 161.41C39.7728 161.41 38.7954 162.387 38.7954 163.593C38.7954 164.007 38.912 164.396 39.1136 164.727C41.7311 169.42 44.8127 173.891 48.2722 178.017C48.3133 178.066 48.3604 178.117 48.4058 178.162C48.8314 178.588 49.3885 178.801 49.9459 178.801C50.5047 178.8 51.0639 178.587 51.4904 178.16C52.3023 177.348 52.3386 176.053 51.6034 175.196C48.3093 171.265 45.378 167.006 42.8897 162.535Z" fill="#535DA3"/>
<path d="M32.8915 128.251C32.8418 127.09 31.884 126.166 30.711 126.166C29.5053 126.166 28.5283 127.145 28.5283 128.351C28.5283 128.395 28.5296 128.438 28.5323 128.482C28.8278 133.406 29.5529 138.32 30.6874 143.088C30.9262 144.091 31.8216 144.766 32.809 144.766C32.9762 144.766 33.146 144.747 33.3158 144.706C34.4888 144.427 35.2135 143.25 34.9341 142.078C33.8598 137.564 33.1731 132.913 32.8915 128.251Z" fill="#535DA3"/>
<path d="M32.4871 107.653C33.5471 107.653 34.4297 106.896 34.6284 105.894C35.6843 101.104 37.1825 96.3938 39.0815 91.894C39.205 91.6163 39.2709 91.3134 39.2709 91.0052C39.2709 89.7999 38.294 88.8225 37.0883 88.8225C36.1794 88.8225 35.4002 89.3778 35.0719 90.1683C33.0581 94.9349 31.4713 99.9245 30.3555 104.999C30.3215 105.153 30.3044 105.314 30.3044 105.472C30.3044 106.677 31.2819 107.653 32.4871 107.653Z" fill="#535DA3"/>
<path d="M194.509 105.472C199.651 99.282 206.88 95.161 214.41 93.6244C216.724 100.775 215.528 109.187 210.346 116.673C206.767 121.86 201.803 125.828 196.285 128.351C193.832 129.477 191.265 130.315 188.663 130.848C186.345 123.706 187.559 115.281 192.728 107.808C193.287 107 193.88 106.219 194.509 105.472Z" fill="#FC6F22"/>
<path d="M186.014 163.597C182.547 163.488 179.125 162.877 175.903 161.794C177.488 154.447 182.753 147.773 190.981 143.892C199.219 140.011 208.679 139.758 216.846 142.499C215.27 149.846 210.01 156.521 201.781 160.402C196.787 162.755 191.344 163.772 186.014 163.597Z" fill="#FF9E69"/>
<path d="M208.447 70.9375C210.255 70.9375 211.721 69.4717 211.721 67.6635C211.721 65.8553 210.255 64.3894 208.447 64.3894C206.639 64.3894 205.173 65.8553 205.173 67.6635C205.173 69.4717 206.639 70.9375 208.447 70.9375Z" fill="#11184A"/>
<path d="M206.265 182.255C208.073 182.255 209.539 180.789 209.539 178.981C209.539 177.173 208.073 175.707 206.265 175.707C204.457 175.707 202.991 177.173 202.991 178.981C202.991 180.789 204.457 182.255 206.265 182.255Z" fill="#11184A"/>
<path d="M175.026 67.7071C176.401 62.4337 178.985 57.5489 182.434 53.5327C188.641 57.7715 192.85 65.1665 193.339 74.2508C193.653 80.1266 192.374 85.902 189.911 91.0139C188.562 93.8165 186.86 96.4183 184.874 98.7319C178.666 94.4975 174.462 87.1113 173.973 78.0269C173.787 74.5128 174.166 71.0335 175.026 67.7071Z" fill="#FF9E69"/>
<path d="M177.051 176.61C182.106 178.09 186.764 180.692 190.593 184.093C186.267 190.23 178.811 194.312 169.718 194.67C165.811 194.818 161.956 194.264 158.32 193.125C153.492 191.619 149.043 189.087 145.363 185.821C149.702 179.684 157.15 175.602 166.252 175.244C169.944 175.104 173.589 175.593 177.051 176.61Z" fill="#FC6F22"/>
<path d="M177.89 208.447C179.698 208.447 181.164 206.981 181.164 205.173C181.164 203.365 179.698 201.899 177.89 201.899C176.082 201.899 174.616 203.365 174.616 205.173C174.616 206.981 176.082 208.447 177.89 208.447Z" fill="#11184A"/>
<path d="M166.976 27.2837C168.784 27.2837 170.25 25.8178 170.25 24.0096C170.25 22.2014 168.784 20.7356 166.976 20.7356C165.168 20.7356 163.702 22.2014 163.702 24.0096C163.702 25.8178 165.168 27.2837 166.976 27.2837Z" fill="#11184A"/>
<path d="M150.907 32.6967C157.629 38.8257 161.471 47.4692 162.052 56.0734C154.665 57.4135 146.475 55.0999 139.748 48.9621C133.026 42.8375 129.185 34.1897 128.608 25.5855C135.991 24.2453 144.18 26.5634 150.907 32.6967Z" fill="#FC6F22"/>
<path d="M113.218 62.1144C144.557 62.1144 169.968 87.521 169.968 118.864C169.968 150.208 144.557 175.614 113.218 175.614C81.8743 175.614 56.4678 150.208 56.4678 118.864C56.4678 87.521 81.8743 62.1144 113.218 62.1144Z" fill="#FC6F22"/>
<path d="M141.169 104.978L106.42 140.04L86.96 120.546L94.8829 112.692L106.42 124.192L133.246 97.1244L141.169 104.978Z" fill="white"/>
<path d="M98.4046 25.5812C97.8153 34.1897 93.9781 42.8332 87.251 48.9578C80.524 55.0955 72.3476 57.4135 64.9526 56.0734C65.5289 47.4648 69.3796 38.8214 76.1062 32.6967C82.8333 26.559 91.0096 24.241 98.4046 25.5812Z" fill="#FC6F22"/>
<path d="M49.9446 176.615C53.4107 175.593 57.0601 175.104 60.758 175.244C69.8507 175.602 77.3068 179.684 81.6329 185.821C77.9529 189.087 73.5093 191.619 68.6808 193.125C65.0444 194.264 61.1898 194.818 57.2832 194.67C48.1901 194.312 40.734 190.23 36.4036 184.093C40.2316 180.696 44.8894 178.095 49.9446 176.615Z" fill="#FC6F22"/>
<path d="M60.024 22.9183C61.8322 22.9183 63.2981 21.4524 63.2981 19.6442C63.2981 17.836 61.8322 16.3702 60.024 16.3702C58.2158 16.3702 56.75 17.836 56.75 19.6442C56.75 21.4524 58.2158 22.9183 60.024 22.9183Z" fill="#11184A"/>
<path d="M55.6588 208.447C57.467 208.447 58.9328 206.981 58.9328 205.173C58.9328 203.365 57.467 201.899 55.6588 201.899C53.8506 201.899 52.3848 203.365 52.3848 205.173C52.3848 206.981 53.8506 208.447 55.6588 208.447Z" fill="#11184A"/>
<path d="M37.0841 91.0139C34.6264 85.902 33.3473 80.1266 33.6704 74.2508C34.1593 65.1665 38.368 57.7715 44.562 53.5327C48.015 57.5445 50.5994 62.4337 51.9701 67.7071C52.8344 71.0335 53.2147 74.5128 53.0269 78.0269C52.538 87.1113 48.3294 94.4975 42.1261 98.7319C40.1355 96.4226 38.433 93.8165 37.0841 91.0139Z" fill="#FF9E69"/>
<path d="M40.9824 163.597C35.6523 163.772 30.213 162.755 25.2277 160.402C16.999 156.521 11.7391 149.846 10.1541 142.499C17.2875 140.107 25.3936 139.994 32.8104 142.582C33.8974 142.958 34.9669 143.394 36.019 143.892C44.2481 147.773 49.508 154.447 51.0926 161.794C47.871 162.877 44.4485 163.488 40.9824 163.597Z" fill="#FF9E69"/>
<path d="M32.487 105.468C33.1157 106.219 33.7098 107 34.2681 107.808C39.4498 115.281 40.6503 123.706 38.3327 130.848C35.731 130.315 33.1641 129.477 30.7108 128.351C25.1973 125.824 20.2382 121.855 16.6542 116.673C11.4808 109.187 10.2716 100.775 12.5896 93.6244C20.1286 95.161 27.3534 99.282 32.487 105.468Z" fill="#FC6F22"/>
<path d="M22.9183 57.8414C24.7265 57.8414 26.1924 56.3755 26.1924 54.5673C26.1924 52.7591 24.7265 51.2933 22.9183 51.2933C21.1101 51.2933 19.6443 52.7591 19.6443 54.5673C19.6443 56.3755 21.1101 57.8414 22.9183 57.8414Z" fill="#11184A"/>
<path d="M113.5 164.793C88.2263 164.793 67.6636 144.231 67.6636 118.957C67.6636 117.751 68.641 116.774 69.8463 116.774C71.052 116.774 72.029 117.751 72.029 118.957C72.029 141.824 90.6329 160.428 113.5 160.428C136.368 160.428 154.971 141.824 154.971 118.957C154.971 96.0895 136.368 77.4856 113.5 77.4856C112.295 77.4856 111.317 76.5082 111.317 75.3029C111.317 74.0976 112.295 73.1202 113.5 73.1202C138.774 73.1202 159.337 93.6825 159.337 118.957C159.337 144.231 138.774 164.793 113.5 164.793Z" fill="#FFB187"/>
</svg>
