<svg width="321" height="535" viewBox="0 0 321 535" fill="none" xmlns="http://www.w3.org/2000/svg">
<g opacity="0.03">
<path d="M93.2528 499.848C76.3331 511.888 61.1945 523.593 45.1653 533.626C41.2693 536.079 33.2548 534.964 28.5796 532.511C-22.2907 506.202 -65.5917 470.306 -101.323 425.715C-165.885 345.228 -216.31 257.048 -235.679 154.042C-241.133 124.501 -242.469 94.1784 -245.808 64.1907C-246.81 55.8299 -243.916 50.4789 -236.347 45.9083C-137.946 -12.8408 -31.8637 -38.4808 82.4554 -29.1166C163.937 -22.4279 239.519 2.43173 309.98 44.0132C320.444 50.1445 321.891 55.3839 315.769 65.9744C297.179 97.6342 267.904 109.897 233.508 112.238C196.329 114.802 158.817 114.579 121.749 118.146C67.9846 123.274 26.3533 148.357 0.0833435 197.519C-18.2834 231.854 -15.278 267.081 -7.04074 302.643C1.97565 341.772 16.4464 378.783 38.7091 412.672C57.2985 440.765 74.4408 469.749 93.2528 500.071V499.848Z" fill="#11184A"/>
<path d="M37.3729 348.014C20.008 309.554 10.9916 272.989 19.2288 233.972C28.6905 189.046 64.7561 155.268 116.851 148.134C157.146 142.671 198.221 142.56 238.962 139.884C249.091 139.215 259.332 138.324 269.351 136.317C290.611 132.192 308.533 122.717 318.328 101.201C319.219 101.87 320.109 102.539 321 103.208C316.547 121.713 312.54 140.33 307.531 158.613C295.732 200.863 266.456 224.942 224.936 234.975C201.227 240.661 177.294 245.454 153.362 250.582C99.0407 262.399 58.6338 291.383 37.4843 347.903L37.3729 348.014Z" fill="#11184A"/>
<path d="M109.392 480.674C94.0311 456.371 79.2264 434.745 66.2027 412.114C49.8396 383.464 54.5148 355.149 76.3322 332.296C91.6935 316.355 110.506 301.862 130.431 292.61C157.925 279.79 187.757 271.54 217.033 262.733C241.522 255.376 267.458 252.032 287.049 232.634C243.08 325.161 185.197 407.209 109.281 480.674H109.392Z" fill="#11184A"/>
</g>
</svg>
